<svg width="54" height="52" viewBox="0 0 54 52" fill="none" xmlns="http://www.w3.org/2000/svg">
<path d="M27 51.2308C23.2874 51.2308 21.5244 51.228 19.9055 50.9374C15.6287 50.1697 11.7541 47.9327 8.95085 44.6127C7.88975 43.356 7.00582 41.8306 5.14952 38.6154C3.29322 35.4002 2.41414 33.872 1.85636 32.3247C0.382798 28.237 0.382798 23.763 1.85636 19.6753C2.41414 18.128 3.29322 16.5998 5.14952 13.3846C7.00582 10.1694 7.88975 8.644 8.95085 7.38731C11.7541 4.06732 15.6287 1.83034 19.9055 1.06264C21.5244 0.77204 23.2874 0.76924 27 0.76924C30.7126 0.76924 32.4756 0.77204 34.0945 1.06264C38.3713 1.83034 42.2459 4.06732 45.0492 7.38732C46.1103 8.644 46.9942 10.1694 48.8505 13.3846C50.7068 16.5998 51.5859 18.128 52.1436 19.6753C53.6172 23.763 53.6172 28.237 52.1436 32.3247C51.5859 33.872 50.7068 35.4002 48.8505 38.6154C46.9942 41.8306 46.1103 43.356 45.0492 44.6127C42.2459 47.9327 38.3713 50.1697 34.0945 50.9374C32.4756 51.228 30.7126 51.2308 27 51.2308Z" fill="#3C5064" stroke="#3C5064" stroke-width="1.5"/>
</svg>
